<svg width="41" height="41" viewBox="0 0 41 41" fill="none" xmlns="http://www.w3.org/2000/svg">
<path d="M4.76574 8.34106C6.96011 8.34106 8.739 6.55787 8.739 4.35819C8.739 2.1585 6.96011 0.375305 4.76574 0.375305C2.57137 0.375305 0.79248 2.1585 0.79248 4.35819C0.79248 6.55787 2.57137 8.34106 4.76574 8.34106Z" fill="black"/>
<path d="M20.7925 8.34106C22.9868 8.34106 24.7657 6.55787 24.7657 4.35819C24.7657 2.1585 22.9868 0.375305 20.7925 0.375305C18.5981 0.375305 16.8192 2.1585 16.8192 4.35819C16.8192 6.55787 18.5981 8.34106 20.7925 8.34106Z" fill="black"/>
<path d="M36.8192 8.34106C39.0136 8.34106 40.7925 6.55787 40.7925 4.35819C40.7925 2.1585 39.0136 0.375305 36.8192 0.375305C34.6248 0.375305 32.8459 2.1585 32.8459 4.35819C32.8459 6.55787 34.6248 8.34106 36.8192 8.34106Z" fill="black"/>
<path d="M4.76574 24.3582C6.96011 24.3582 8.739 22.575 8.739 20.3753C8.739 18.1756 6.96011 16.3924 4.76574 16.3924C2.57137 16.3924 0.79248 18.1756 0.79248 20.3753C0.79248 22.575 2.57137 24.3582 4.76574 24.3582Z" fill="black"/>
<path d="M20.7925 24.3582C22.9868 24.3582 24.7657 22.575 24.7657 20.3753C24.7657 18.1756 22.9868 16.3924 20.7925 16.3924C18.5981 16.3924 16.8192 18.1756 16.8192 20.3753C16.8192 22.575 18.5981 24.3582 20.7925 24.3582Z" fill="black"/>
<path d="M36.8192 24.3582C39.0136 24.3582 40.7925 22.575 40.7925 20.3753C40.7925 18.1756 39.0136 16.3924 36.8192 16.3924C34.6248 16.3924 32.8459 18.1756 32.8459 20.3753C32.8459 22.575 34.6248 24.3582 36.8192 24.3582Z" fill="black"/>
<path d="M4.76574 40.3753C6.96011 40.3753 8.739 38.5921 8.739 36.3924C8.739 34.1927 6.96011 32.4095 4.76574 32.4095C2.57137 32.4095 0.79248 34.1927 0.79248 36.3924C0.79248 38.5921 2.57137 40.3753 4.76574 40.3753Z" fill="black"/>
<path d="M20.7925 40.3753C22.9868 40.3753 24.7657 38.5921 24.7657 36.3924C24.7657 34.1927 22.9868 32.4095 20.7925 32.4095C18.5981 32.4095 16.8192 34.1927 16.8192 36.3924C16.8192 38.5921 18.5981 40.3753 20.7925 40.3753Z" fill="black"/>
<path d="M36.8192 40.3753C39.0136 40.3753 40.7925 38.5921 40.7925 36.3924C40.7925 34.1927 39.0136 32.4095 36.8192 32.4095C34.6248 32.4095 32.8459 34.1927 32.8459 36.3924C32.8459 38.5921 34.6248 40.3753 36.8192 40.3753Z" fill="black"/>
</svg>
