<svg width="41" height="41" viewBox="0 0 41 41" fill="none" xmlns="http://www.w3.org/2000/svg">
<path d="M4.76574 8.34107C6.96011 8.34107 8.739 6.55788 8.739 4.3582C8.739 2.15852 6.96011 0.37532 4.76574 0.37532C2.57137 0.37532 0.79248 2.15852 0.79248 4.3582C0.79248 6.55788 2.57137 8.34107 4.76574 8.34107Z" fill="black"/>
<path d="M36.819 8.34107C39.0133 8.34107 40.7922 6.55788 40.7922 4.3582C40.7922 2.15852 39.0133 0.37532 36.819 0.37532C34.6246 0.37532 32.8457 2.15852 32.8457 4.3582C32.8457 6.55788 34.6246 8.34107 36.819 8.34107Z" fill="black"/>
<path d="M20.7926 24.3582C22.987 24.3582 24.7659 22.575 24.7659 20.3753C24.7659 18.1756 22.987 16.3925 20.7926 16.3925C18.5982 16.3925 16.8193 18.1756 16.8193 20.3753C16.8193 22.575 18.5982 24.3582 20.7926 24.3582Z" fill="black"/>
<path d="M4.76574 40.3753C6.96011 40.3753 8.739 38.5921 8.739 36.3924C8.739 34.1928 6.96011 32.4096 4.76574 32.4096C2.57137 32.4096 0.79248 34.1928 0.79248 36.3924C0.79248 38.5921 2.57137 40.3753 4.76574 40.3753Z" fill="black"/>
<path d="M12.8463 16.3925C15.0407 16.3925 16.8196 14.6093 16.8196 12.4096C16.8196 10.2099 15.0407 8.42671 12.8463 8.42671C10.6519 8.42671 8.87305 10.2099 8.87305 12.4096C8.87305 14.6093 10.6519 16.3925 12.8463 16.3925Z" fill="black"/>
<path d="M12.8463 32.4096C15.0407 32.4096 16.8196 30.6264 16.8196 28.4267C16.8196 26.227 15.0407 24.4438 12.8463 24.4438C10.6519 24.4438 8.87305 26.227 8.87305 28.4267C8.87305 30.6264 10.6519 32.4096 12.8463 32.4096Z" fill="black"/>
<path d="M28.8727 16.3068C31.067 16.3068 32.8459 14.5236 32.8459 12.3239C32.8459 10.1243 31.067 8.34108 28.8727 8.34108C26.6783 8.34108 24.8994 10.1243 24.8994 12.3239C24.8994 14.5236 26.6783 16.3068 28.8727 16.3068Z" fill="black"/>
<path d="M27.8932 32.9303C30.0876 32.9303 31.8664 31.1471 31.8664 28.9474C31.8664 26.7478 30.0876 24.9646 27.8932 24.9646C25.6988 24.9646 23.9199 26.7478 23.9199 28.9474C23.9199 31.1471 25.6988 32.9303 27.8932 32.9303Z" fill="black"/>
<path d="M36.819 40.3753C39.0133 40.3753 40.7922 38.5921 40.7922 36.3924C40.7922 34.1928 39.0133 32.4096 36.819 32.4096C34.6246 32.4096 32.8457 34.1928 32.8457 36.3924C32.8457 38.5921 34.6246 40.3753 36.819 40.3753Z" fill="black"/>
</svg>
