<svg width="102" height="103" viewBox="0 0 102 103" fill="none" xmlns="http://www.w3.org/2000/svg">
<path d="M0.483059 51.7195L50.983 102.615L101.436 51.7665L50.9364 0.87122L0.483059 51.7195Z" fill="url(#paint0_linear)"/>
<path d="M0.483059 51.7195L50.983 102.615L101.436 51.7665L50.9364 0.87122L0.483059 51.7195Z" fill="white"/>
<path d="M36.5944 46.3187V57.092H38.4594V49.1068L41.8786 50.4914L45.2978 49.1068V57.0857H47.1628V46.3187L41.8538 48.4583L36.5944 46.3187ZM24.851 45.7172C23.7177 45.7172 22.6099 46.056 21.6677 46.6907C20.7255 47.3253 19.9912 48.2274 19.5578 49.2828C19.1244 50.3381 19.0113 51.4993 19.2328 52.6194C19.4544 53.7395 20.0006 54.7683 20.8024 55.5755C21.6042 56.3827 22.6256 56.9321 23.7372 57.1541C24.8489 57.3762 26.0009 57.261 27.0476 56.823C28.0943 56.3851 28.9886 55.6441 29.6173 54.6938C30.246 53.7435 30.581 52.6267 30.5797 51.4845C30.5781 49.9538 29.974 48.4862 28.9 47.4038C27.826 46.3214 26.3699 45.7126 24.851 45.7109V45.7172ZM24.851 55.3252C24.0972 55.3258 23.3601 55.1011 22.733 54.6794C22.1059 54.2578 21.617 53.6582 21.328 52.9564C21.0391 52.2547 20.9632 51.4824 21.1099 50.7371C21.2566 49.9919 21.6193 49.3073 22.1521 48.7698C22.685 48.2324 23.364 47.8663 24.1033 47.7178C24.8426 47.5694 25.609 47.6453 26.3055 47.9359C27.0021 48.2265 27.5974 48.7187 28.0163 49.3504C28.4352 49.9821 28.6588 50.7247 28.6588 51.4845C28.6579 52.5023 28.2566 53.4782 27.5428 54.1982C26.829 54.9182 25.8609 55.3235 24.851 55.3252V55.3252ZM54.7099 57.0857H64.492V55.1905H56.5967V52.6843H62.7451V50.8047H56.5874V48.2985H64.492V46.4189H54.7099V57.0857ZM71.7624 46.3876V57.0857H73.6274V48.2797H79.6452V57.0857H81.5102V46.3876H71.7624Z" fill="#1B1B1B"/>
<defs>
<linearGradient id="paint0_linear" x1="76.2735" y1="77.8595" x2="25.3798" y2="27.3611" gradientUnits="userSpaceOnUse">
<stop stop-color="#FF55E1"/>
<stop offset="0.51" stop-color="#FF0000"/>
<stop offset="1" stop-color="#FBB216"/>
</linearGradient>
</defs>
</svg>
