<svg width="255" height="101" viewBox="0 0 255 101" fill="none" xmlns="http://www.w3.org/2000/svg">
<mask id="mask0" mask-type="alpha" maskUnits="userSpaceOnUse" x="144" y="20" width="111" height="59">
<g clip-path="url(#clip0)">
<path d="M217.848 47.1807C218.523 47.456 219.098 47.7304 219.604 48.1298C221.069 49.2858 221.646 50.8284 221.615 52.6226C221.575 54.8971 220.856 56.8393 218.745 58.0618C217.648 58.6973 216.45 59.0557 215.203 59.2709C213.941 59.4886 212.666 59.5246 211.391 59.5256C204.556 59.5312 197.721 59.5234 190.885 59.54C190.387 59.5412 190.245 59.4274 190.247 58.9211C190.27 54.436 190.272 49.9508 190.252 45.4656C190.251 45.0495 190.33 44.922 190.784 44.9232C197.707 44.9399 204.63 44.9446 211.552 44.9372C212.006 44.9549 212.46 44.8987 212.895 44.7709C213.652 44.5195 213.967 44.0894 213.96 43.3108C213.954 42.5904 213.649 42.1908 212.916 41.9502C212.464 41.8162 211.993 41.7554 211.522 41.7701C202.292 41.7712 193.062 41.7719 183.832 41.7723C183.657 41.7723 183.483 41.7723 183.263 41.7723C183.372 41.4686 183.63 41.3353 183.811 41.1499C185.591 39.3286 187.42 37.556 189.316 35.8501C189.418 35.7482 189.541 35.6681 189.676 35.6145C189.811 35.561 189.956 35.5352 190.101 35.5387C197.304 35.5486 204.506 35.5519 211.708 35.5488C213.572 35.5499 215.403 35.7763 217.138 36.4872C220.839 38.0034 222.262 42.1131 220.213 45.3085C219.661 46.1695 218.881 46.7462 217.848 47.1807ZM205.279 50.0709C202.954 50.0709 200.628 50.0785 198.303 50.0629C197.943 50.0605 197.819 50.1454 197.833 50.5141C197.862 51.2865 197.867 52.0618 197.832 52.8336C197.813 53.253 197.924 53.381 198.369 53.3793C202.81 53.3622 207.251 53.3693 211.691 53.3675C212.111 53.3762 212.53 53.3222 212.933 53.2074C213.683 52.9778 214.07 52.4533 214.072 51.6707C214.073 50.9267 213.677 50.4234 212.924 50.2011C212.498 50.0755 212.062 50.0731 211.625 50.0726C209.51 50.0708 207.394 50.0702 205.279 50.0709Z" fill="#413A98"/>
<path d="M218.038 35.5567H254.512C253.46 36.9019 252.452 38.1904 251.444 39.4791C250.944 40.119 250.433 40.751 249.951 41.4037C249.872 41.5236 249.761 41.6203 249.631 41.6833C249.501 41.7464 249.356 41.7735 249.211 41.7617C246.624 41.7465 244.037 41.763 241.45 41.7436C241.034 41.7404 240.929 41.8524 240.93 42.2558C240.943 47.8064 240.932 53.3571 240.95 58.9077C240.951 59.4012 240.831 59.5385 240.32 59.5313C238.188 59.5013 236.055 59.5068 233.923 59.5291C233.491 59.5336 233.37 59.4297 233.372 58.9936C233.388 53.4602 233.374 47.9267 233.393 42.3932C233.395 41.8774 233.276 41.7351 232.736 41.7395C229.433 41.7664 226.129 41.7474 222.825 41.7602C222.442 41.7617 222.307 41.6913 222.264 41.2693C222.018 38.8514 220.725 37.0911 218.623 35.8711C218.475 35.7852 218.321 35.7084 218.038 35.5567Z" fill="#413A98"/>
<path d="M182.983 69.8349C181.912 70.8317 180.675 71.6137 179.449 72.4013C176.167 74.5109 172.756 76.3896 169.054 77.7031C167.16 78.3751 165.229 78.8859 163.187 78.8847C159.998 78.8831 158.282 77.3005 157.57 74.3734C157.074 72.3313 157.372 70.3141 157.951 68.327C158.943 64.9231 160.653 61.8577 162.595 58.9072C165.192 54.9597 168.205 51.331 171.414 47.8527C176.241 42.6433 181.468 37.8055 187.047 33.3823C191.465 29.8641 196.071 26.6037 201.032 23.8541C202.843 22.8504 206.536 21.2429 206.648 21.2041C206.961 21.0846 207.285 20.9947 207.615 20.9356C206.741 21.4814 205.554 22.2187 204.752 22.7203C199.362 26.0888 194.19 29.7452 189.386 33.8951C184.675 37.9648 180.386 42.4324 176.296 47.0964C175.958 47.4822 175.987 47.6766 176.349 48.0225C180.16 51.6623 183.96 55.3129 187.75 58.9743C187.924 59.1422 188.117 59.2919 188.289 59.4393C188.167 59.6687 188.008 59.5881 187.887 59.5885C186.051 59.595 184.215 59.5845 182.38 59.6002C182.234 59.6035 182.089 59.5752 181.956 59.5172C181.823 59.4591 181.704 59.3727 181.609 59.2644C179.009 56.6928 176.393 54.1366 173.801 51.5568C173.441 51.1981 173.235 51.2238 172.882 51.5581C170.632 53.6887 168.902 56.2034 167.314 58.8189C165.546 61.731 164.028 64.7609 163.102 68.0453C162.681 69.5376 162.407 71.0451 162.57 72.6156C162.787 74.6933 164.199 76.0613 166.343 76.1858C168.499 76.311 170.522 75.7428 172.532 75.0731C175.688 74.0214 178.484 72.2891 181.317 70.624C181.84 70.3162 182.356 69.9916 182.926 69.7688C182.946 69.7905 182.965 69.8126 182.983 69.8349Z" fill="#7E7EBB"/>
<path d="M202.036 21.4152C194.08 25.5806 187.02 30.969 180.321 36.842C175.186 41.3436 170.385 46.1667 166.057 51.4313C162.766 55.4347 159.764 59.6265 157.629 64.3584C156.379 67.1291 155.492 69.9889 155.674 73.0697C155.737 74.1483 155.872 75.2229 155.93 76.3148C155.453 75.5762 155.103 74.7949 155.038 73.8991C154.712 69.4037 155.911 65.229 157.814 61.2089C159.762 57.0934 162.332 53.3563 165.115 49.7532C165.854 48.7957 166.615 47.8536 167.381 46.9167C167.573 46.6827 167.636 46.5552 167.356 46.3113C163.137 42.6259 159.03 38.8157 154.671 35.2848C154.609 35.2202 154.551 35.1518 154.498 35.0801C154.818 35.0801 155.062 35.0789 155.306 35.0803C157.299 35.0916 159.292 35.1096 161.285 35.1084C161.413 35.1039 161.541 35.126 161.66 35.1735C161.778 35.221 161.886 35.2926 161.974 35.3838C164.589 37.8668 167.222 40.3315 169.819 42.833C170.207 43.2065 170.362 43.0206 170.624 42.7664C174.606 38.879 178.851 35.2611 183.33 31.9375C189.038 27.7277 195.108 24.1261 201.678 21.3606C201.725 21.3405 201.971 21.2441 202.104 21.1906C202.237 21.1371 203.2 20.7992 203.2 20.7992C203.2 20.7992 202.106 21.3811 202.036 21.4152Z" fill="#413A98"/>
<path d="M152.202 50.7591C152.202 53.5075 152.191 56.2559 152.214 59.0041C152.218 59.4493 152.083 59.5323 151.66 59.5281C149.476 59.506 147.292 59.5097 145.107 59.5255C144.751 59.5282 144.635 59.4476 144.636 59.0785C144.648 53.5474 144.649 48.0164 144.637 42.4853C144.636 42.1086 144.756 42.04 145.109 42.0426C147.328 42.0582 149.547 42.062 151.766 42.0404C152.166 42.0365 152.212 42.1823 152.21 42.514C152.199 45.2624 152.204 48.0108 152.204 50.7591H152.202Z" fill="#413A98"/>
<path d="M213.45 71.3413C213.829 70.047 214.191 68.7985 214.56 67.5519C214.925 66.3187 215.282 65.083 215.671 63.8568C215.948 62.982 216.663 62.5838 217.531 62.7749C218.053 62.8899 218.358 63.2557 218.602 63.6881C219.499 65.2753 220.398 66.8658 221.298 68.4593C222.187 66.8835 223.075 65.3094 223.962 63.7371C224.214 63.2907 224.518 62.897 225.061 62.7796C225.935 62.5906 226.649 62.9575 226.904 63.8055C227.622 66.2035 228.301 68.6132 229.01 71.0139C229.105 71.3353 228.974 71.3471 228.721 71.3426C228.11 71.3319 227.497 71.321 226.887 71.3471C226.565 71.3608 226.443 71.2582 226.363 70.9469C225.956 69.3703 225.519 67.8012 225.084 66.2005C224.888 66.3628 224.835 66.6001 224.73 66.7989C224.066 68.0445 223.409 69.2932 222.757 70.5448C222.444 71.1459 221.991 71.4824 221.269 71.4853C220.528 71.4883 220.058 71.1512 219.734 70.5307C219.048 69.2189 218.356 67.9106 217.656 66.6058C217.586 66.4751 217.57 66.3057 217.403 66.2184C216.98 67.7904 216.549 69.3518 216.149 70.9207C216.066 71.2468 215.942 71.365 215.593 71.3501C214.897 71.3205 214.199 71.3413 213.45 71.3413Z" fill="#413A98"/>
<path d="M206.87 71.4665C205.712 71.4804 204.568 71.3884 203.459 71.031C201.598 70.4312 200.687 69.1894 200.661 67.2089C200.633 65.1203 201.456 63.8122 203.353 63.2174C205.645 62.4786 208.119 62.4842 210.408 63.2336C212.695 63.9735 213.327 65.765 213.006 67.9628C212.739 69.7928 211.58 70.8105 209.524 71.2352C208.651 71.4102 207.761 71.4878 206.87 71.4665ZM206.883 64.9379C206.272 64.9415 205.66 64.9207 205.055 65.0389C204.885 65.0721 204.712 65.1004 204.546 65.148C203.744 65.3775 203.357 65.8436 203.299 66.666C203.28 66.9402 203.279 67.2151 203.295 67.4895C203.345 68.3399 203.762 68.8732 204.613 69.0629C206.033 69.3659 207.502 69.3818 208.929 69.1097C210.012 68.9165 210.415 68.3636 210.443 67.2691C210.451 67.0459 210.446 66.8225 210.429 66.5999C210.36 65.8483 209.961 65.3705 209.221 65.1544C208.457 64.9316 207.67 64.9318 206.883 64.9379Z" fill="#413A98"/>
<path d="M199.985 69.1612C199.42 69.8905 198.932 70.516 198.449 71.1446C198.36 71.2595 198.272 71.3462 198.109 71.3411C196.365 71.2856 194.611 71.4781 192.876 71.2303C190.918 70.9512 189.401 69.6181 189.012 67.9196C188.511 65.7306 189.821 63.7304 192.178 63.0949C192.751 62.9402 193.343 62.863 193.938 62.8653C195.877 62.8704 197.817 62.8669 199.756 62.8676C199.821 62.8752 199.886 62.8863 199.95 62.9009C199.412 63.6076 198.9 64.2843 198.383 64.9575C198.255 65.1242 198.059 65.0832 197.892 65.0838C196.651 65.0877 195.413 65.0563 194.172 65.0617C193.535 65.0644 192.921 65.1677 192.386 65.5454C191.178 66.3987 191.269 68.0751 192.561 68.7965C193.062 69.0765 193.607 69.1611 194.173 69.1611C195.885 69.1615 197.597 69.1615 199.31 69.1612C199.496 69.1612 199.683 69.1612 199.985 69.1612Z" fill="#413A98"/>
<path d="M148.421 40.7101C147.286 40.7099 146.151 40.7005 145.016 40.7163C144.718 40.7204 144.636 40.6312 144.639 40.3419C144.653 39.0031 144.653 37.6644 144.638 36.3254C144.635 36.0324 144.72 35.9499 145.018 35.9514C147.288 35.9623 149.558 35.9619 151.828 35.9503C152.124 35.9489 152.211 36.0372 152.208 36.327C152.195 37.6657 152.195 39.0045 152.21 40.3434C152.213 40.6386 152.121 40.7207 151.826 40.7166C150.691 40.7011 149.556 40.7104 148.421 40.7101Z" fill="#413A98"/>
<path d="M186.674 71.4674C185.817 71.4632 185.262 71.0007 185.254 70.2833C185.245 69.5385 185.814 69.0342 186.669 69.0287C187.543 69.0231 188.101 69.4979 188.105 70.2515C188.11 71.0056 187.561 71.4718 186.674 71.4674Z" fill="#413A98"/>
<path d="M182.926 69.7693C182.998 69.7376 183.074 69.7156 183.152 69.704C183.107 69.7401 183.028 69.7998 182.983 69.8361C182.964 69.8136 182.945 69.7913 182.926 69.7693Z" fill="#7E7EBB"/>
</g>
</mask>
<g mask="url(#mask0)">
<path d="M127.94 85.7981L261.245 85.7981L261.245 7.64308L127.94 7.64307L127.94 85.7981Z" fill="url(#paint0_linear)"/>
<path d="M127.94 85.7981L261.245 85.7981L261.245 7.64308L127.94 7.64307L127.94 85.7981Z" fill="black"/>
</g>
<g clip-path="url(#clip1)">
<path d="M-0.286716 50.8483L50.2133 101.744L100.667 50.8953L50.1666 1.18584e-05L-0.286716 50.8483Z" fill="url(#paint1_linear)"/>
<path d="M35.8247 45.4475V56.2208H37.6897V48.2356L41.1089 49.6203L44.5281 48.2356V56.2146H46.3931V45.4475L41.084 47.5871L35.8247 45.4475ZM24.0813 44.846C22.948 44.846 21.8402 45.1848 20.8979 45.8195C19.9557 46.4542 19.2215 47.3562 18.788 48.4116C18.3546 49.4669 18.2416 50.6281 18.4631 51.7482C18.6847 52.8684 19.2309 53.8971 20.0327 54.7043C20.8345 55.5115 21.8558 56.0609 22.9675 56.2829C24.0792 56.505 25.2312 56.3898 26.2779 55.9518C27.3246 55.5139 28.2188 54.7729 28.8476 53.8226C29.4763 52.8724 29.8112 51.7555 29.81 50.6133C29.8083 49.0826 29.2043 47.615 28.1303 46.5326C27.0563 45.4502 25.6001 44.8414 24.0813 44.8398V44.846ZM24.0813 54.454C23.3274 54.4546 22.5903 54.2299 21.9632 53.8082C21.3361 53.3866 20.8472 52.787 20.5583 52.0852C20.2694 51.3835 20.1935 50.6112 20.3402 49.866C20.4869 49.1207 20.8496 48.4361 21.3824 47.8987C21.9152 47.3612 22.5943 46.9951 23.3336 46.8467C24.0729 46.6982 24.8393 46.7741 25.5358 47.0647C26.2323 47.3553 26.8277 47.8476 27.2466 48.4792C27.6654 49.1109 27.889 49.8536 27.889 50.6133C27.8882 51.6311 27.4869 52.6071 26.773 53.3271C26.0592 54.0471 25.0912 54.4523 24.0813 54.454ZM53.9402 56.2146H63.7222V54.3193H55.827V51.8131H61.9753V49.9335H55.8177V47.4274H63.7222V45.5478H53.9402V56.2146ZM70.9927 45.5164V56.2146H72.8577V47.4086H78.8755V56.2146H80.7405V45.5164H70.9927Z" fill="white"/>
</g>
<defs>
<linearGradient id="paint0_linear" x1="261.663" y1="43.6028" x2="126.823" y2="43.6028" gradientUnits="userSpaceOnUse">
<stop stop-color="#FF41E7"/>
<stop offset="0.1" stop-color="#FF32B1"/>
<stop offset="0.24" stop-color="#FF1D66"/>
<stop offset="0.36" stop-color="#FF0D2F"/>
<stop offset="0.45" stop-color="#FF040D"/>
<stop offset="0.5" stop-color="#FF0000"/>
<stop offset="0.56" stop-color="#FF0A00"/>
<stop offset="0.65" stop-color="#FF2500"/>
<stop offset="0.78" stop-color="#FF5000"/>
<stop offset="0.92" stop-color="#FF8C00"/>
<stop offset="1" stop-color="#FFB000"/>
</linearGradient>
<linearGradient id="paint1_linear" x1="75.5037" y1="76.9883" x2="24.61" y2="26.4899" gradientUnits="userSpaceOnUse">
<stop stop-color="#FF55E1"/>
<stop offset="0.51" stop-color="#FF0000"/>
<stop offset="1" stop-color="#FBB216"/>
</linearGradient>
<clipPath id="clip0">
<rect width="110.512" height="58.5065" fill="white" transform="translate(144 20.4935)"/>
</clipPath>
<clipPath id="clip1">
<rect width="101" height="101" fill="white"/>
</clipPath>
</defs>
</svg>
