<svg width="23" height="23" viewBox="0 0 23 23" fill="none" xmlns="http://www.w3.org/2000/svg">
<path d="M11.3315 2.44222C14.3063 2.44222 14.6583 2.45372 15.8333 2.50723C16.9194 2.55675 17.5093 2.73806 17.902 2.89062C18.3858 3.06931 18.8234 3.35415 19.1826 3.7242C19.5527 4.08357 19.8376 4.52133 20.0162 5.00529C20.1687 5.39753 20.35 5.98745 20.3996 7.07352C20.4531 8.24848 20.4646 8.60093 20.4646 11.5753C20.4646 14.5496 20.4535 14.9025 20.3996 16.077C20.35 17.1631 20.1687 17.753 20.0162 18.1457C19.8308 18.6261 19.547 19.0624 19.1828 19.4266C18.8187 19.7907 18.3824 20.0745 17.902 20.2599C17.5093 20.4125 16.9194 20.5942 15.8333 20.6437C14.6588 20.6968 14.3063 20.7083 11.3315 20.7083C8.35677 20.7083 8.00433 20.6972 6.82981 20.6437C5.74373 20.5938 5.15382 20.4125 4.76114 20.2599C4.27738 20.0813 3.83977 19.7966 3.48048 19.4268C3.11038 19.0674 2.82554 18.6296 2.64691 18.1457C2.49435 17.753 2.31304 17.1635 2.26351 16.077C2.20956 14.9025 2.19851 14.55 2.19851 11.5753C2.19851 8.60049 2.20956 8.24848 2.26351 7.07352C2.31304 5.98745 2.49435 5.39753 2.64691 5.00485C2.8256 4.52105 3.11043 4.08344 3.48048 3.7242C3.83973 3.35415 4.27733 3.06931 4.76114 2.89062C5.15382 2.73806 5.74373 2.55675 6.82981 2.50723C8.00477 2.45372 8.35677 2.44222 11.3315 2.44222ZM11.3315 0.43457C8.30592 0.43457 7.9265 0.447837 6.73871 0.502229C5.5527 0.556179 4.743 0.744562 4.03458 1.01962C3.29123 1.29939 2.61786 1.73794 2.06142 2.30469C1.49451 2.86109 1.0558 3.53446 0.775906 4.27785C0.500849 4.98672 0.312466 5.79641 0.258516 6.98198C0.204124 8.17021 0.191299 8.54963 0.191299 11.5753C0.191299 14.6009 0.204124 14.9803 0.258516 16.1685C0.312466 17.3541 0.500849 18.1638 0.776348 18.8727C1.05612 19.616 1.49467 20.2894 2.06142 20.8458C2.6179 21.4124 3.29127 21.8508 4.03458 22.1305C4.743 22.406 5.5527 22.5943 6.73871 22.6483C7.92694 22.7027 8.30636 22.7155 11.3315 22.7155C14.3567 22.7155 14.7366 22.7027 15.9248 22.6483C17.1108 22.5943 17.9205 22.406 18.629 22.1309C19.369 21.8447 20.0411 21.407 20.6022 20.8459C21.1633 20.2848 21.601 19.6127 21.8872 18.8727C22.1627 18.1638 22.3506 17.3541 22.4046 16.1685C22.459 14.9803 22.4718 14.6009 22.4718 11.5753C22.4718 8.54963 22.459 8.17021 22.405 6.98198C22.3506 5.79641 22.1627 4.98672 21.8872 4.27785C21.6074 3.5345 21.1689 2.86113 20.6021 2.30469C20.0457 1.73794 19.3723 1.29939 18.629 1.01962C17.9201 0.744562 17.1104 0.556179 15.9248 0.502229C14.7366 0.447837 14.3572 0.435013 11.3315 0.435013V0.43457Z" fill="white"/>
<path d="M11.3315 5.85493C10.2 5.85493 9.09394 6.19047 8.15313 6.81911C7.21232 7.44776 6.47905 8.34127 6.04607 9.38665C5.61308 10.432 5.49981 11.5823 5.72059 12.6921C5.94137 13.8019 6.48627 14.8212 7.2864 15.6213C8.08653 16.4214 9.10594 16.9662 10.2157 17.1869C11.3255 17.4076 12.4758 17.2942 13.5212 16.8612C14.5665 16.4281 15.46 15.6948 16.0885 14.7539C16.7171 13.813 17.0526 12.7069 17.0525 11.5754C17.0525 10.8241 16.9045 10.0802 16.617 9.38611C16.3295 8.69202 15.9081 8.06135 15.3768 7.53011C14.8456 6.99887 14.2149 6.57747 13.5208 6.28997C12.8268 6.00247 12.0828 5.85449 11.3315 5.85449V5.85493ZM11.3315 15.2887C10.5971 15.2887 9.87921 15.0709 9.26857 14.6629C8.65792 14.2549 8.18198 13.6749 7.90093 12.9964C7.61989 12.3179 7.54635 11.5713 7.68963 10.851C7.83291 10.1307 8.18656 9.46904 8.70587 8.94973C9.22518 8.43042 9.88682 8.07677 10.6071 7.93349C11.3274 7.79021 12.074 7.86375 12.7526 8.1448C13.4311 8.42585 14.011 8.90179 14.419 9.51243C14.827 10.1231 15.0448 10.841 15.0448 11.5754C15.0448 12.063 14.9488 12.5459 14.7622 12.9964C14.5755 13.4469 14.302 13.8563 13.9572 14.2011C13.6124 14.5459 13.2031 14.8194 12.7526 15.006C12.302 15.1926 11.8192 15.2887 11.3315 15.2887Z" fill="white"/>
<path d="M17.2784 6.96513C18.0167 6.96513 18.6152 6.36662 18.6152 5.62832C18.6152 4.89001 18.0167 4.2915 17.2784 4.2915C16.5401 4.2915 15.9416 4.89001 15.9416 5.62832C15.9416 6.36662 16.5401 6.96513 17.2784 6.96513Z" fill="white"/>
</svg>
