<svg width="24" height="19" viewBox="0 0 24 19" fill="none" xmlns="http://www.w3.org/2000/svg">
<path fill-rule="evenodd" clip-rule="evenodd" d="M20.7705 4.9637C20.7849 5.16481 20.7849 5.36598 20.7849 5.5671C20.7849 11.7015 16.1159 18.7697 7.58227 18.7697C4.95322 18.7697 2.51097 18.0083 0.456573 16.6866C0.830111 16.7297 1.18923 16.7441 1.57714 16.7441C3.74642 16.7441 5.74337 16.0114 7.33804 14.7616C5.29802 14.7184 3.58842 13.3824 2.99939 11.5435C3.28674 11.5866 3.57405 11.6153 3.87577 11.6153C4.29238 11.6153 4.70903 11.5578 5.0969 11.4573C2.97069 11.0263 1.37598 9.15867 1.37598 6.90316V6.84571C1.99371 7.19051 2.71208 7.406 3.47344 7.4347C2.22357 6.60143 1.40472 5.17919 1.40472 3.57015C1.40472 2.70819 1.63454 1.91804 2.03682 1.22845C4.32108 4.04425 7.75465 5.8831 11.6048 6.08427C11.533 5.73947 11.4898 5.38035 11.4898 5.02118C11.4898 2.46395 13.5586 0.380859 16.1302 0.380859C17.4662 0.380859 18.673 0.941144 19.5206 1.84622C20.5693 1.6451 21.575 1.25719 22.4657 0.725653C22.1209 1.80315 21.3882 2.70823 20.4257 3.28284C21.3595 3.18233 22.2646 2.92368 23.0978 2.56455C22.4658 3.48396 21.6756 4.30281 20.7705 4.9637Z" fill="white"/>
</svg>
