<svg width="25" height="18" viewBox="0 0 25 18" fill="none" xmlns="http://www.w3.org/2000/svg">
<path fill-rule="evenodd" clip-rule="evenodd" d="M23.7936 3.03781C23.5159 1.99198 22.6975 1.16831 21.6584 0.888786C19.7751 0.380859 12.2229 0.380859 12.2229 0.380859C12.2229 0.380859 4.67076 0.380859 2.78733 0.888786C1.74826 1.16835 0.9299 1.99198 0.652146 3.03781C0.147491 4.93345 0.147491 8.88852 0.147491 8.88852C0.147491 8.88852 0.147491 12.8436 0.652146 14.7392C0.9299 15.7851 1.74826 16.5744 2.78733 16.8539C4.67076 17.3619 12.2229 17.3619 12.2229 17.3619C12.2229 17.3619 19.775 17.3619 21.6584 16.8539C22.6975 16.5744 23.5159 15.7851 23.7936 14.7392C24.2983 12.8436 24.2983 8.88852 24.2983 8.88852C24.2983 8.88852 24.2983 4.93345 23.7936 3.03781ZM9.7529 12.4794V5.29761L16.065 8.88861L9.7529 12.4794Z" fill="white"/>
</svg>
