<svg width="238" height="63" viewBox="0 0 195 40" fill="none" xmlns="http://www.w3.org/2000/svg" class="Logo__svg"><path fill-rule="evenodd" clip-rule="evenodd" d="M103.842 2H91.3726C90.6808 2 90.164 2.57513 90.164 3.2086C90.164 3.84208 90.6808 4.33385 91.3726 4.33385H96.4571V14.0277C96.4571 14.6778 97.0322 15.2363 97.699 15.2363C98.3658 15.2363 98.941 14.6778 98.941 14.0277V4.33385H103.85C104.517 4.33385 105.059 3.84208 105.059 3.2086C105.059 2.57513 104.509 2 103.842 2ZM87.0964 2.00027C86.7297 2.00027 86.538 2.1003 86.2962 2.25033L75.3521 11.5441V3.24222C75.3521 2.5754 74.8354 2.00027 74.1435 2.00027C73.46 2.00027 72.9016 2.5754 72.9016 3.24222V14.028C72.9016 14.6781 73.46 15.2366 74.1435 15.2366C74.5103 15.2366 74.777 15.0699 75.0187 14.8781L85.8711 5.66776V14.028C85.8711 14.6781 86.4046 15.2366 87.0964 15.2366C87.7799 15.2366 88.3217 14.6781 88.3217 14.028V3.24222C88.3217 2.5754 87.7799 2.00027 87.0964 2.00027ZM57.048 2.00018H66.9669C68.7256 2.00018 70.0009 3.25879 70.0009 5.03419V5.95106C70.0009 6.67622 69.4425 7.193 68.7923 7.193C68.1255 7.193 67.592 6.64288 67.592 5.95106V5.07586C67.592 4.73412 67.342 4.33403 66.9752 4.33403H57.0564C56.6979 4.33403 56.3895 4.69244 56.3895 5.07586V12.1858C56.3895 12.5525 56.6896 12.8943 57.0564 12.8943H66.9752C67.342 12.8943 67.592 12.5275 67.592 12.1858V11.2856C67.592 10.6188 68.1255 10.0436 68.7923 10.0436C69.4425 10.0436 70.0009 10.5938 70.0009 11.2856V12.2275C70.0009 13.9695 68.7256 15.2448 66.9669 15.2448H57.048C55.0726 15.2448 53.9307 13.8361 53.9307 12.1524V5.10087C53.9307 3.41716 55.3476 2.00018 57.048 2.00018ZM179.808 2C179.124 2 178.566 2.57513 178.566 3.24194V14.0277C178.566 14.6778 179.124 15.2363 179.808 15.2363C180.475 15.2363 181.016 14.6778 181.016 14.0277V3.24194C181.016 2.57513 180.475 2 179.808 2ZM154.694 2.25006C154.936 2.10002 155.128 2 155.495 2C156.145 2 156.737 2.57513 156.737 3.24194V14.0277C156.737 14.6778 156.145 15.2363 155.495 15.2363C154.803 15.2363 154.253 14.6778 154.253 14.0277V5.66748L143.4 14.8779C143.167 15.0696 142.9 15.2363 142.5 15.2363C141.85 15.2363 141.291 14.6778 141.291 14.0277V3.24194C141.291 2.57513 141.85 2 142.5 2C143.225 2 143.742 2.57513 143.742 3.24194V11.5438L154.694 2.25006ZM174.056 2C173.373 2 172.815 2.57513 172.815 3.24194V7.50956H162.487V3.24194C162.487 2.57513 161.895 2 161.245 2C160.578 2 160.003 2.57513 160.003 3.24194V14.0277C160.003 14.6778 160.578 15.2363 161.245 15.2363C161.895 15.2363 162.487 14.6778 162.487 14.0277V9.83508H172.815V14.0277C172.815 14.6778 173.373 15.2363 174.056 15.2363C174.723 15.2363 175.265 14.6778 175.265 14.0277V3.24194C175.273 2.57513 174.723 2 174.056 2ZM185.144 8.63481L192.029 13.0941C192.404 13.3359 192.579 13.7359 192.571 14.1444C192.571 14.7362 192.071 15.253 191.438 15.253C191.204 15.253 190.954 15.1779 190.729 15.0446L182.36 9.63503C182.019 9.43499 181.844 9.0349 181.844 8.63481C181.844 8.26806 181.994 7.8513 182.36 7.61792L190.729 2.20838C190.971 2.07502 191.237 2 191.471 2C191.971 2 192.579 2.38342 192.579 3.12525C192.579 3.52534 192.396 3.95043 192.029 4.15881L185.144 8.63481ZM132.914 2.65042C132.622 2.15031 132.247 2.00027 131.806 2.00027C131.405 2.00027 130.989 2.20865 130.739 2.60874L124.237 13.4695C124.104 13.6612 124.045 13.8696 124.045 14.103C124.045 14.7364 124.579 15.2449 125.154 15.2449C125.596 15.2449 126.029 15.0198 126.263 14.6531L131.806 5.43437L137.315 14.6364C137.548 15.0198 137.982 15.2449 138.39 15.2449C139.074 15.2449 139.557 14.6864 139.557 14.0446C139.557 13.8112 139.499 13.6029 139.391 13.4112L132.914 2.65042ZM120.28 2.25006C120.513 2.10002 120.696 2 121.063 2C121.755 2 122.305 2.57513 122.297 3.24194V14.0277C122.297 14.6778 121.747 15.2363 121.055 15.2363C120.38 15.2363 119.846 14.6778 119.846 14.0277V5.66748L108.985 14.8779C108.752 15.0696 108.485 15.2363 108.085 15.2363C107.435 15.2363 106.877 14.6778 106.877 14.0277V3.24194C106.877 2.57513 107.435 2 108.085 2C108.794 2 109.327 2.57513 109.327 3.24194V11.5438L120.28 2.25006Z" fill="#FE7200"></path><path fill-rule="evenodd" clip-rule="evenodd" d="M41.7177 17.5998C42.3791 17.5998 42.9068 18.1126 42.9068 18.7741V23.0105C42.9068 25.6787 41.3535 28.1908 37.6745 28.1908H33.4455H32.3158L32.3678 25.976H33.4455H37.6596C39.4211 25.976 40.5434 24.8686 40.5434 23.0923V18.7741C40.5434 18.1126 41.0562 17.5998 41.7177 17.5998ZM9.87086 28.1983L17.254 37.8379C17.7228 38.4466 18.2196 39.0764 18.8913 39.4892C19.6329 39.923 20.4306 40 21.2842 40H26.7418C27.3855 40 27.9802 39.902 28.54 39.5941C29.2607 39.1813 29.7085 38.5376 29.9813 37.7749C30.4011 36.6205 30.814 35.466 31.2198 34.3115C31.5207 33.4789 31.7515 32.6462 31.9055 31.7786C32.0804 30.799 32.1504 29.7915 32.1504 28.7909V21.857C32.1504 21.1014 31.8495 20.3667 31.3037 19.8349C30.772 19.3032 30.0513 18.9883 29.2956 18.9883C28.9248 18.9883 28.561 19.0653 28.2181 19.1982L28.0082 19.2962L27.9103 19.0723C27.7633 18.7714 27.5604 18.4915 27.3295 18.2536C26.7978 17.7219 26.0771 17.407 25.3074 17.407C24.8596 17.407 24.4258 17.519 24.027 17.7149L23.8311 17.8128L23.7191 17.6309C23.6072 17.47 23.4812 17.309 23.3483 17.1691C22.8025 16.6373 22.0818 16.3225 21.3262 16.3225C21.0533 16.3225 20.7664 16.3715 20.5075 16.4484L20.1857 16.5464L20.1997 10.718C20.1997 9.14367 18.9053 7.86324 17.345 7.86324C15.7707 7.86324 14.4762 9.14367 14.4762 10.718L14.4902 23.3544L13.1608 22.1509C12.2792 21.3463 11.0547 20.8495 9.85128 21.1713C8.61983 21.5072 7.76621 22.5847 7.66825 23.8511C7.60557 24.609 7.81671 25.3438 8.20719 25.9834H7.15733H5.24723C3.47833 25.9834 2.36348 24.876 2.36348 23.0997V5.09858C2.36348 3.32225 3.48576 2.21483 5.24723 2.21483H37.667C39.4359 2.21483 40.5508 3.32225 40.5508 5.09858V9.4242C40.5508 10.0857 41.0636 10.5985 41.7251 10.5985C42.3866 10.5985 42.9143 10.0857 42.9143 9.4242V5.18034C42.9143 2.51956 41.3609 0 37.6819 0H5.2175C1.55336 0 0 2.51213 0 5.18034V23.0179C0 25.6787 1.55336 28.1983 5.2175 28.1983H8.76272H9.87086ZM30.2122 31.4917C30.3592 30.6031 30.4361 29.6935 30.4361 28.7909H30.4011V21.85C30.4011 21.5562 30.2752 21.2693 30.0653 21.0594C29.8554 20.8355 29.5685 20.7235 29.2747 20.7235C28.9668 20.7235 28.6799 20.8495 28.47 21.0594C28.2601 21.2693 28.1482 21.5562 28.1482 21.85L28.1342 22.5707C28.1342 23.0395 27.7493 23.4243 27.2805 23.4243C26.7978 23.4243 26.4129 23.0395 26.4129 22.5567V20.2757C26.4129 19.9679 26.301 19.681 26.0911 19.4711C25.8672 19.2612 25.5873 19.1492 25.2864 19.1492C24.9926 19.1492 24.7057 19.2612 24.4958 19.4711C24.3069 19.653 24.1739 19.9049 24.1739 20.1638L24.1599 21.829C24.1599 22.3118 23.7751 22.6966 23.2923 22.6966C22.8235 22.6827 22.4247 22.2978 22.4247 21.829L22.4387 20.2757V19.1982C22.4387 18.9043 22.3127 18.6175 22.1028 18.4076C21.8929 18.1837 21.6131 18.0717 21.3122 18.0717C21.0183 18.0717 20.7314 18.1837 20.5215 18.3936C20.3116 18.6035 20.1857 18.8973 20.1857 19.1982V21.843C20.1857 22.3258 19.8009 22.7106 19.3181 22.7106C18.8493 22.7106 18.4505 22.3258 18.4505 21.843V19.8209L18.4645 10.732C18.4645 9.24163 16.1975 9.25562 16.1975 10.732L16.2115 25.3275C16.2115 25.8103 15.8266 26.1951 15.3438 26.1951C15.1129 26.1951 14.889 26.0831 14.7141 25.9222L11.9993 23.4173C11.4046 22.8856 10.474 22.5007 9.78831 23.1305C9.54342 23.3544 9.39648 23.6972 9.38249 24.047C9.3545 24.6278 9.5784 24.9776 9.91425 25.4114L18.6324 36.7814C18.6537 36.809 18.6755 36.8373 18.6978 36.8663C18.9975 37.2562 19.3831 37.7579 19.7869 37.9988C20.2067 38.2437 20.8154 38.2717 21.2982 38.2717H26.7558C27.0776 38.2717 27.4205 38.2507 27.7073 38.0898C28.1132 37.8519 28.2531 37.5021 28.4 37.0823L29.6175 33.7237C29.8764 32.9891 30.0793 32.2474 30.2122 31.4917Z" fill="#FE7200"></path><path d="M55.8 24.75H57.82C57.79 25.86 57.18 26.45 56.35 26.45C55.64 26.45 55.3 26.11 55.1 25.55H54.4C54.6 26.43 55.24 27.07 56.35 27.07C57.62 27.07 58.5 26.19 58.5 24.67V24.23C58.5 22.83 57.63 21.93 56.35 21.93C55.24 21.93 54.6 22.57 54.4 23.35H55.1C55.3 22.89 55.64 22.55 56.35 22.55C57.17 22.55 57.79 23.14 57.82 24.15H55.8V24.75ZM60.2512 27.07H60.4012C61.3212 27.07 61.9112 26.48 61.9112 24.4V22.6H63.9912V27H64.6512V22H61.2512V24.4C61.2512 26.07 60.8712 26.45 60.4012 26.45H60.2512V27.07ZM69.3004 27.07C70.5304 27.07 71.2004 26.4 71.4004 25.54H70.7204C70.5204 26.06 70.1304 26.45 69.3004 26.45C68.4104 26.45 67.8304 25.87 67.8304 24.72V24.69H71.4504V24.28C71.4504 22.78 70.6004 21.93 69.3004 21.93C68.0004 21.93 67.1504 22.78 67.1504 24.28V24.72C67.1504 26.23 67.9904 27.07 69.3004 27.07ZM69.3004 22.55C70.1404 22.55 70.7104 23.07 70.7604 24.11H67.8304C67.8904 23.11 68.4404 22.55 69.3004 22.55ZM77.1308 27H77.9508L76.1008 24.41L77.7508 22H76.9308L75.5008 24.1H74.6108V22H73.9508V27H74.6108V24.7H75.5008L77.1308 27ZM79.5484 22.6H81.2184V27H81.8784V22.6H83.5484V22H79.5484V22.6ZM87.9904 27.07C89.1304 27.07 89.9504 26.25 89.9504 24.72V24.28C89.9504 22.74 89.1404 21.93 87.9904 21.93C87.2504 21.93 86.6804 22.23 86.3404 22.84L86.2604 22H85.7504V29H86.4104V26.27C86.7504 26.81 87.3004 27.07 87.9904 27.07ZM87.8404 26.45C87.0004 26.45 86.4104 25.83 86.4104 24.72V24.2C86.4404 23.13 87.0404 22.55 87.8404 22.55C88.6904 22.55 89.2704 23.13 89.2704 24.28V24.72C89.2704 25.88 88.7004 26.45 87.8404 26.45ZM94.3461 27.07C95.6661 27.07 96.5461 26.19 96.5461 24.72V24.28C96.5461 22.8 95.6761 21.93 94.3461 21.93C93.0261 21.93 92.1461 22.81 92.1461 24.28V24.72C92.1461 26.2 93.0161 27.07 94.3461 27.07ZM94.3461 26.45C93.4561 26.45 92.8261 25.82 92.8261 24.72V24.28C92.8261 23.17 93.4461 22.55 94.3461 22.55C95.2361 22.55 95.8661 23.18 95.8661 24.28V24.72C95.8661 25.83 95.2461 26.45 94.3461 26.45ZM102.484 27H103.144V22H102.484V24.15H99.7041V22H99.0441V27H99.7041V24.75H102.484V27ZM109.385 27H110.045V22H109.385V24.15H106.605V22H105.945V27H106.605V24.75H109.385V27ZM112.846 27H114.616C116.006 27 116.646 26.36 116.646 25.4C116.646 24.42 116.026 23.8 114.616 23.8H113.506V22H112.846V27ZM114.616 24.4C115.586 24.4 115.966 24.78 115.966 25.4C115.966 26.03 115.606 26.4 114.616 26.4H113.506V24.4H114.616ZM117.586 27H118.246V22H117.586V27ZM124.485 27H125.145V22H124.325L122.325 25.2L121.705 26.25V22H121.045V27H121.865L123.865 23.8L124.485 22.76V27ZM123.095 21.37C123.925 21.37 124.445 20.86 124.445 20H123.825C123.825 20.59 123.565 20.85 123.095 20.85C122.645 20.85 122.385 20.59 122.385 20H121.745C121.745 20.86 122.265 21.37 123.095 21.37ZM135.336 28.3H135.996V26.4H135.296V22H131.946V23.5C131.946 25.16 131.846 25.69 131.376 26.4H130.846V28.3H131.506V27H135.336V28.3ZM132.606 23.5V22.6H134.636V26.4H132.146C132.476 25.77 132.606 25.16 132.606 23.5ZM141.584 27H142.244V22H141.424L139.424 25.2L138.804 26.25V22H138.144V27H138.964L140.964 23.8L141.584 22.76V27ZM146.895 27.07C148.005 27.07 148.645 26.43 148.845 25.55H148.145C147.945 26.11 147.605 26.45 146.895 26.45C146.055 26.45 145.425 25.82 145.425 24.72V24.28C145.425 23.17 146.045 22.55 146.895 22.55C147.605 22.55 147.945 22.89 148.145 23.35H148.845C148.645 22.57 148.005 21.93 146.895 21.93C145.625 21.93 144.745 22.81 144.745 24.28V24.72C144.745 26.2 145.615 27.07 146.895 27.07ZM154.374 27H155.194L153.344 24.41L154.994 22H154.174L152.744 24.1H151.854V22H151.194V27H151.854V24.7H152.744L154.374 27ZM158.494 27.07C159.244 27.07 159.884 26.69 160.234 26.06L160.334 27H160.844V23.6C160.844 22.55 160.224 21.93 159.044 21.93C157.844 21.93 157.244 22.53 157.194 23.35H157.904C157.954 22.86 158.314 22.55 159.044 22.55C159.854 22.55 160.184 22.88 160.184 23.6V24.05H159.044C157.544 24.05 156.944 24.65 156.944 25.62C156.944 26.52 157.494 27.07 158.494 27.07ZM158.544 26.45C157.944 26.45 157.624 26.13 157.624 25.62C157.624 25.04 158.014 24.65 159.044 24.65H160.184V24.88C160.184 25.73 159.464 26.45 158.544 26.45ZM164.094 29H164.794L167.494 22H166.794L165.224 26.18L163.534 22H162.794L164.864 27L164.094 29ZM173.129 27H173.789V22H173.129V24.15H170.349V22H169.689V27H170.349V24.75H173.129V27ZM175.99 22.6H177.66V27H178.32V22.6H179.99V22H175.99V22.6ZM183.846 27.07C185.076 27.07 185.746 26.4 185.946 25.54H185.266C185.066 26.06 184.676 26.45 183.846 26.45C182.956 26.45 182.376 25.87 182.376 24.72V24.69H185.996V24.28C185.996 22.78 185.146 21.93 183.846 21.93C182.546 21.93 181.696 22.78 181.696 24.28V24.72C181.696 26.23 182.536 27.07 183.846 27.07ZM183.846 22.55C184.686 22.55 185.256 23.07 185.306 24.11H182.376C182.436 23.11 182.986 22.55 183.846 22.55ZM190.737 27.07C191.877 27.07 192.697 26.25 192.697 24.72V24.28C192.697 22.74 191.887 21.93 190.737 21.93C189.997 21.93 189.427 22.23 189.087 22.84L189.007 22H188.497V29H189.157V26.27C189.497 26.81 190.047 27.07 190.737 27.07ZM190.587 26.45C189.747 26.45 189.157 25.83 189.157 24.72V24.2C189.187 23.13 189.787 22.55 190.587 22.55C191.437 22.55 192.017 23.13 192.017 24.28V24.72C192.017 25.88 191.447 26.45 190.587 26.45Z" fill="#151528"></path></svg>