<svg  width="90" height="90" xmlns="http://www.w3.org/2000/svg" viewBox="0 0 56 56"><g><g><path fill="#0096d6" d="M40.482 19.436L34.24 36.569h4.458l6.245-17.133zM28 56c15.464 0 28-12.536 28-28S43.464 0 28 0c-.422 0-.841.01-1.258.03l-5.728 15.742h4.988c2.968 0 4.567 2.284 3.551 5.076L22.49 40.262h-5.932l7.58-20.81h-4.46l-7.581 20.81H6.162l8.914-24.49h.002L20.44 1.033C8.648 4.332 0 15.156 0 28c0 13.226 9.17 24.309 21.499 27.24l5.197-14.28h.004l9.166-25.188H46.79c2.971 0 4.57 2.284 3.555 5.075L44.137 37.9c-.472 1.299-1.99 2.361-3.372 2.361h-7.876l-5.722 15.726c.278.008.554.013.833.013z"/></g></g></svg>